<?xml version="1.0" encoding="utf-8"?>
<!-- Generator: Adobe Illustrator 24.3.0, SVG Export Plug-In . SVG Version: 6.00 Build 0)  -->
<svg version="1.1" id="Artwork" xmlns="http://www.w3.org/2000/svg" xmlns:xlink="http://www.w3.org/1999/xlink" x="0px" y="0px"
	 width="124.0956px" height="28.0275px" viewBox="0 0 124.0956 28.0275" style="enable-background:new 0 0 124.0956 28.0275;"
	 xml:space="preserve">
<style type="text/css">
	.st0{fill-rule:evenodd;clip-rule:evenodd;fill:url(#SVGID_1_);}
	.st1{fill-rule:evenodd;clip-rule:evenodd;fill:#FFFFFF;}
</style>
<g>
	<g id="XMLID_77_">
		<path id="XMLID_104_" d="M38.1669,21.6713h-4.737l-1.1369,3.359h-2.0068l4.4872-12.4276h2.0843l4.4872,12.4276h-2.0412
			L38.1669,21.6713z M33.9208,20.121h3.7552l-1.8517-5.4513h-0.0517L33.9208,20.121z"/>
		<path id="XMLID_101_" d="M51.0257,20.4999c0,2.8169-1.5072,4.6256-3.781,4.6256c-1.2919,0-2.3168-0.5776-2.8508-1.5847h-0.0431
			v4.4867h-1.8604V15.9696h1.8001v1.5078h0.0345c0.5168-0.9738,1.6192-1.602,2.8853-1.602
			C49.5099,15.8755,51.0257,17.6922,51.0257,20.4999z M49.1137,20.4999c0-1.8339-0.9474-3.0397-2.3943-3.0397
			c-1.4211,0-2.3771,1.231-2.3771,3.0397c0,1.8259,0.956,3.0489,2.3771,3.0489C48.1663,23.5489,49.1137,22.3523,49.1137,20.4999z"/>
		<path id="XMLID_98_" d="M60.9906,20.4999c0,2.8169-1.5072,4.6256-3.781,4.6256c-1.2919,0-2.3168-0.5776-2.8508-1.5847h-0.0431
			v4.4867h-1.8604V15.9696h1.8001v1.5078h0.0345c0.5168-0.9738,1.6192-1.602,2.8853-1.602
			C59.4748,15.8755,60.9906,17.6922,60.9906,20.4999z M59.0786,20.4999c0-1.8339-0.9474-3.0397-2.3943-3.0397
			c-1.4211,0-2.3771,1.231-2.3771,3.0397c0,1.8259,0.956,3.0489,2.3771,3.0489C58.1312,23.5489,59.0786,22.3523,59.0786,20.4999z"/>
		<path id="XMLID_96_" d="M62.4893,12.6026h1.8604v12.4276h-1.8604V12.6026z"/>
		<path id="XMLID_93_" d="M74.0303,22.3695c-0.2498,1.6445-1.8517,2.7733-3.9016,2.7733c-2.6355,0-4.2719-1.7662-4.2719-4.5992
			c0-2.8422,1.645-4.6853,4.1944-4.6853c2.5063,0,4.0824,1.7225,4.0824,4.4694v0.6373h-6.3993v0.1125
			c0,1.5503,0.9732,2.5666,2.4374,2.5666c1.0335,0,1.8431-0.4915,2.0929-1.2747H74.0303z M67.743,19.6651h4.5303
			c-0.0431-1.3872-0.9302-2.3002-2.2221-2.3002C68.7679,17.3649,67.8378,18.2951,67.743,19.6651z"/>
		<path id="XMLID_91_" d="M90.1786,25.0302v-9.1467h-0.0597l-3.7471,9.0526h-1.4297l-3.7551-9.0526h-0.0597v9.1467h-1.757V12.6026
			h2.2301l4.0227,9.8093h0.0689l4.0135-9.8093h2.2393v12.4276H90.1786z"/>
		<path id="XMLID_89_" d="M101.8506,25.0302h-1.7823v-1.5583h-0.0436c-0.5168,1.0852-1.4205,1.6617-2.8077,1.6617
			c-1.9717,0-3.1775-1.2747-3.1775-3.3498v-5.8142h1.8604v5.4524c0,1.378,0.6546,2.1095,1.9373,2.1095
			c1.3436,0,2.1532-0.9302,2.1532-2.3427v-5.2193h1.8604V25.0302z"/>
		<path id="XMLID_87_" d="M107.1411,15.8663c2.0062,0,3.4451,1.1116,3.4876,2.7136h-1.7478
			c-0.0781-0.8016-0.7579-1.2919-1.7915-1.2919c-1.0083,0-1.6801,0.4651-1.6801,1.1713c0,0.542,0.4479,0.9038,1.3872,1.1369
			l1.5239,0.3525c1.8259,0.4398,2.5149,1.1116,2.5149,2.438c0,1.6364-1.5503,2.7561-3.7632,2.7561
			c-2.136,0-3.5749-1.0944-3.7127-2.748h1.8431c0.1298,0.8705,0.8268,1.3355,1.9557,1.3355c1.1105,0,1.8087-0.457,1.8087-1.1805
			c0-0.5593-0.3445-0.8613-1.2919-1.1024l-1.6192-0.3962c-1.6364-0.3962-2.4632-1.231-2.4632-2.4885
			C103.5927,16.9607,105.0304,15.8663,107.1411,15.8663z"/>
		<path id="XMLID_84_" d="M112.2847,13.5845c0-0.5949,0.4823-1.068,1.076-1.068c0.6029,0,1.0852,0.4731,1.0852,1.068
			c0,0.5857-0.4823,1.0588-1.0852,1.0588C112.767,14.6433,112.2847,14.1702,112.2847,13.5845z M112.4305,15.9696h1.8604v9.0606
			h-1.8604V15.9696z"/>
		<path id="XMLID_82_" d="M122.3042,19.0875c-0.1642-0.9554-0.9129-1.6709-2.136-1.6709c-1.4297,0-2.3771,1.1977-2.3771,3.0834
			c0,1.9293,0.9554,3.0925,2.3943,3.0925c1.1541,0,1.912-0.5776,2.1187-1.6284h1.7915c-0.2067,1.904-1.7317,3.1787-3.9274,3.1787
			c-2.5838,0-4.2719-1.7662-4.2719-4.6428c0-2.8158,1.6881-4.6417,4.2547-4.6417c2.3254,0,3.7724,1.4642,3.9274,3.2292H122.3042z"/>
	</g>
	<g>
		<path d="M32.0835,8.0176c0.3438,0,0.6055-0.0557,0.7852-0.168c0.1807-0.1113,0.2705-0.2666,0.2705-0.4678
			c0-0.1084-0.0332-0.2041-0.0986-0.2871s-0.1533-0.1572-0.2617-0.2236c-0.1084-0.0654-0.2285-0.1211-0.3604-0.167
			s-0.2666-0.0918-0.4033-0.1377c-0.2178-0.0684-0.4209-0.1426-0.6094-0.2227c-0.1895-0.0801-0.3525-0.1777-0.4902-0.292
			c-0.1367-0.1143-0.2461-0.252-0.3262-0.4121s-0.1201-0.3545-0.1201-0.584c0-0.1885,0.043-0.3613,0.1289-0.5195
			c0.0859-0.1572,0.208-0.291,0.3652-0.4033c0.1572-0.1113,0.3477-0.1982,0.5703-0.2617c0.2236-0.0625,0.4697-0.0947,0.7383-0.0947
			c0.3154,0,0.6064,0.0352,0.876,0.1035c0.2686,0.0684,0.5117,0.1602,0.7295,0.2744l-0.2402,0.6865
			C33.437,4.7324,33.231,4.6553,33.019,4.6094S32.5786,4.541,32.3325,4.541c-0.292,0-0.5254,0.0459-0.7002,0.1367
			c-0.1738,0.0918-0.2617,0.2207-0.2617,0.3867c0,0.0977,0.0273,0.1816,0.082,0.2529c0.0547,0.0723,0.127,0.1367,0.2188,0.1934
			c0.0918,0.0576,0.2002,0.1104,0.3262,0.1592s0.2637,0.0957,0.4121,0.1416c0.2578,0.0859,0.4863,0.1748,0.6865,0.2656
			c0.2002,0.0918,0.3711,0.1992,0.5107,0.3223c0.1406,0.123,0.248,0.2676,0.3223,0.4336s0.1113,0.3604,0.1113,0.584
			c0,0.4004-0.1562,0.7266-0.4678,0.9785s-0.7881,0.377-1.4287,0.377c-0.6758,0-1.2256-0.123-1.6484-0.3691l0.2227-0.7119
			c0.1943,0.0977,0.4082,0.1758,0.6396,0.2363C31.5903,7.9873,31.8315,8.0176,32.0835,8.0176z"/>
		<path d="M32.813,2.292c0,0.1484,0.0713,0.2227,0.2148,0.2227h2.1113v0.7217h-2.2744c-0.2861,0-0.5107-0.0693-0.6738-0.2061
			c-0.1631-0.1377-0.2451-0.3604-0.2451-0.6699V1.9746h0.8672V2.292z"/>
		<path d="M37.3032,8.7725c-0.6523,0-1.1553-0.1582-1.5068-0.4756c-0.3516-0.3184-0.5283-0.7891-0.5283-1.4121V3.8711h0.9277v3.0137
			c0,0.3545,0.0938,0.6309,0.2832,0.8281c0.1885,0.1973,0.4629,0.2959,0.8242,0.2959c0.3604,0,0.6348-0.0986,0.8232-0.2959
			c0.1895-0.1973,0.2842-0.4736,0.2842-0.8281V3.8711h0.9268v3.0137c0,0.623-0.1758,1.0938-0.5283,1.4121
			C38.4575,8.6143,37.9556,8.7725,37.3032,8.7725z"/>
		<path d="M43.6206,4.1113l0.7217,2.292c0.0684,0.2178,0.127,0.4365,0.1758,0.6572c0.0479,0.2197,0.0957,0.4873,0.1416,0.8027
			h0.0254c0-0.1553,0.0029-0.2949,0.0088-0.4209s0.0117-0.2451,0.0176-0.3564c0.0049-0.1113,0.0127-0.2197,0.0215-0.3262
			c0.0078-0.1055,0.0176-0.2188,0.0293-0.3389l0.4297-4.1807h0.8584l-0.7295,6.4385h-1.0049l-0.7725-2.3262
			c-0.0742-0.2178-0.1406-0.4453-0.1973-0.6826c-0.0576-0.2373-0.1035-0.4941-0.1377-0.7686h-0.0166
			c-0.0293,0.2744-0.0664,0.5312-0.1123,0.7686s-0.1025,0.4648-0.1709,0.6826l-0.7559,2.3262h-1.0215
			c-0.1318-0.8076-0.2646-1.6084-0.3994-2.4043c-0.1348-0.7949-0.2705-1.5967-0.4072-2.4033h0.918
			c0.0342,0.1895,0.0664,0.3809,0.0947,0.5752s0.0596,0.4023,0.0947,0.6221c0.0342,0.2207,0.0713,0.457,0.1113,0.709
			s0.0859,0.5322,0.1377,0.8408c0.0166,0.0977,0.0293,0.1914,0.0381,0.2832s0.0176,0.1846,0.0264,0.2793
			c0.0078,0.0947,0.0156,0.1973,0.0205,0.3086c0.0059,0.1123,0.0117,0.2363,0.0176,0.374h0.0254
			c0.0293-0.2754,0.0615-0.5107,0.0996-0.709c0.0371-0.1973,0.084-0.3867,0.1416-0.5703l0.7295-2.4727H43.6206z"/>
		<path d="M43.3794,2.292c0,0.1484,0.0713,0.2227,0.2139,0.2227h1.8545v0.7217h-2.0176c-0.2861,0-0.5107-0.0693-0.6738-0.2061
			c-0.1631-0.1377-0.2441-0.3604-0.2441-0.6699V1.9746h0.8672V2.292z"/>
		<path d="M48.0659,8.6787l-1.4502-4.8076h0.9268l1.2188,4.043h0.1035c0.1602,0,0.3145-0.04,0.4629-0.1201
			c0.1494-0.0801,0.2812-0.1973,0.3955-0.3516s0.2061-0.3418,0.2744-0.5625c0.0684-0.2197,0.1035-0.4678,0.1035-0.7422
			c0-0.5781-0.0938-0.9883-0.2793-1.2324c-0.1865-0.2432-0.4189-0.3643-0.6992-0.3643c-0.1895,0-0.3721,0.0342-0.5498,0.1025
			l-0.1377-0.7031c0.1035-0.0518,0.2275-0.0918,0.374-0.1211c0.1455-0.0283,0.2871-0.043,0.4248-0.043
			c0.2568,0,0.4961,0.0537,0.7168,0.1592c0.2197,0.1064,0.4102,0.2607,0.5703,0.4639s0.2852,0.4502,0.374,0.7422
			c0.0879,0.292,0.1328,0.624,0.1328,0.9961c0,0.3945-0.0557,0.748-0.167,1.0596c-0.1123,0.3125-0.2656,0.5781-0.46,0.7988
			s-0.4248,0.3896-0.6904,0.5068c-0.2666,0.1172-0.5566,0.1758-0.8721,0.1758H48.0659z"/>
		<path d="M52.4185,8.6787V3.0732c0-0.3604,0.0615-0.6709,0.1846-0.9316s0.3018-0.4678,0.5371-0.6221h-1.8887V0.7725h2.9443v0.6611
			c-0.2803,0.126-0.4912,0.3174-0.6309,0.5752c-0.1406,0.2568-0.21,0.5723-0.21,0.9443v5.7256H52.4185z"/>
		<path d="M58.0933,8.6787V5.7939c0-0.3662-0.1016-0.666-0.3047-0.9014c-0.2031-0.2344-0.499-0.3516-0.8887-0.3516
			c-0.4629,0-0.8213,0.1602-1.0723,0.4805c-0.252,0.3203-0.3779,0.7588-0.3779,1.3135c0,0.3086,0.0342,0.5684,0.1025,0.7773
			c0.0693,0.209,0.1582,0.377,0.2666,0.5059s0.2305,0.2207,0.3643,0.2744c0.1348,0.0547,0.2676,0.082,0.3994,0.082
			c0.1143,0,0.2207-0.0068,0.3174-0.0215c0.0977-0.0146,0.1953-0.0439,0.292-0.0898l0.1719,0.6953
			c-0.1084,0.0566-0.2334,0.1016-0.373,0.1328c-0.1406,0.0312-0.2998,0.0469-0.4766,0.0469c-0.2578,0-0.5068-0.0469-0.7471-0.1416
			c-0.2402-0.0938-0.4531-0.2402-0.6396-0.4375c-0.1855-0.1973-0.333-0.4482-0.4414-0.751
			c-0.1094-0.3037-0.1631-0.6611-0.1631-1.0732c0-0.3604,0.0498-0.6963,0.1494-1.0088c0.1006-0.3115,0.249-0.582,0.4463-0.8115
			c0.1982-0.2285,0.4443-0.4082,0.7383-0.54c0.2949-0.1318,0.6338-0.1982,1.0176-0.1982c0.3545,0,0.667,0.0537,0.9355,0.1592
			c0.2695,0.1064,0.4941,0.251,0.6738,0.4336c0.1807,0.1836,0.3145,0.3975,0.4033,0.6436s0.1338,0.5098,0.1338,0.79v2.876H58.0933z"
			/>
		<path d="M58.2144,2.3779c0,0.0908,0.0459,0.1367,0.1367,0.1367h1.1504v0.7217h-1.6133c-0.1094,0-0.2051-0.0332-0.2881-0.0986
			c-0.083-0.0664-0.124-0.165-0.124-0.2969V2.6094c0-0.0518-0.0088-0.0889-0.0264-0.1113
			c-0.0166-0.0234-0.0537-0.0342-0.1113-0.0342h-0.4805V1.7168h0.8154c0.166,0,0.2979,0.0371,0.3945,0.1113
			c0.0977,0.0742,0.1465,0.1885,0.1465,0.3438V2.3779z"/>
		<path d="M63.6567,5.5879c0-0.3604-0.0645-0.625-0.1934-0.7939S63.1499,4.541,62.9097,4.541c-0.3086,0-0.5967,0.0811-0.8623,0.2441
			c-0.2666,0.1631-0.4854,0.3652-0.6572,0.6055v3.2881h-0.9267V3.8711h0.8408l0.0859,0.6523
			c0.0918-0.0908,0.1973-0.1816,0.3174-0.2705c0.1211-0.0879,0.249-0.168,0.3867-0.2402c0.1377-0.0713,0.2861-0.1289,0.4463-0.1719
			s0.332-0.0645,0.5156-0.0645c0.4805,0,0.8555,0.1592,1.124,0.4766c0.2686,0.3184,0.4033,0.7549,0.4033,1.3096v3.1162h-0.9268
			V5.5879z"/>
		<path d="M60.9185,3.2363V2.5146h2.9443V1.7168h0.8418v1.5195H60.9185z"/>
		<path d="M63.9907,1.2793V0h0.8418v1.2793H63.9907z"/>
	</g>
	<g>
		<g>
			<linearGradient id="SVGID_1_" gradientUnits="userSpaceOnUse" x1="12.5802" y1="25.0643" x2="12.5802" y2="0.5408">
				<stop  offset="0" style="stop-color:#FA233B"/>
				<stop  offset="1" style="stop-color:#FB5C74"/>
			</linearGradient>
			<path class="st0" d="M25.1618,7.8699c0-0.3005,0.0001-0.6011-0.0017-0.9016c-0.0015-0.2532-0.0045-0.5063-0.0113-0.7594
				c-0.0149-0.5513-0.0474-1.1074-0.1453-1.6525c-0.0995-0.5536-0.2618-1.0688-0.5179-1.5717c-0.2515-0.494-0.58-0.946-0.972-1.338
				c-0.392-0.392-0.8441-0.7206-1.3382-0.9721c-0.5027-0.2559-1.0176-0.4182-1.5709-0.5177
				c-0.5454-0.098-1.1017-0.1305-1.6531-0.1454c-0.2531-0.0068-0.5062-0.0098-0.7594-0.0113
				c-0.3005-0.0018-0.6011-0.0017-0.9016-0.0017H7.8699c-0.3005,0-0.6011-0.0001-0.9016,0.0017
				C6.7151,0.0018,6.462,0.0047,6.2089,0.0115C5.6575,0.0264,5.1012,0.0589,4.5558,0.157C4.0025,0.2564,3.4876,0.4187,2.9849,0.6746
				C2.4908,0.9261,2.0387,1.2547,1.6467,1.6467c-0.392,0.392-0.7205,0.844-0.972,1.338C0.4187,3.4876,0.2563,4.0028,0.1568,4.5564
				C0.0589,5.1016,0.0264,5.6577,0.0115,6.209C0.0047,6.462,0.0018,6.7151,0.0002,6.9683
				c-0.0018,0.3005-0.0017,0.6011-0.0017,0.9016v9.4205c0,0.3005-0.0001,0.6011,0.0017,0.9016
				c0.0015,0.2532,0.0045,0.5063,0.0113,0.7594c0.0149,0.5513,0.0474,1.1074,0.1453,1.6525
				c0.0995,0.5536,0.2618,1.0688,0.5179,1.5717c0.2515,0.494,0.58,0.946,0.972,1.338c0.392,0.392,0.8441,0.7206,1.3382,0.9721
				c0.5027,0.2559,1.0176,0.4182,1.5709,0.5177c0.5454,0.098,1.1017,0.1305,1.6531,0.1454
				c0.2531,0.0068,0.5062,0.0098,0.7594,0.0113c0.3005,0.0018,0.6011,0.0017,0.9016,0.0017h9.4205
				c0.3005,0,0.6011,0.0001,0.9016-0.0017c0.2532-0.0015,0.5063-0.0045,0.7594-0.0113c0.5515-0.0149,1.1078-0.0474,1.6531-0.1454
				c0.5533-0.0994,1.0682-0.2618,1.5709-0.5177c0.4941-0.2515,0.9462-0.5801,1.3382-0.9721c0.392-0.392,0.7205-0.844,0.972-1.338
				c0.2561-0.5029,0.4184-1.0181,0.5179-1.5717c0.0979-0.5452,0.1304-1.1013,0.1453-1.6525
				c0.0068-0.2531,0.0098-0.5062,0.0113-0.7594c0.0018-0.3005,0.0017-0.6011,0.0017-0.9016V7.8699z"/>
		</g>
		<g id="Glyph_11_">
			<g>
				<path class="st1" d="M17.7878,3.8428c-0.0608,0.0052-0.6013,0.1012-0.6662,0.1144L9.6426,5.4662L9.6397,5.4668
					C9.4445,5.5084,9.292,5.5769,9.1734,5.6765C9.0308,5.7961,8.9517,5.9651,8.9218,6.1621c-0.0063,0.0422-0.017,0.127-0.017,0.2531
					c0,0,0.0001,7.6411,0.0001,9.3605c0,0.2185-0.0175,0.4316-0.1655,0.6124c-0.1479,0.1808-0.3315,0.2357-0.5456,0.2788
					c-0.1628,0.0328-0.3256,0.0656-0.4883,0.0984c-0.6179,0.1246-1.0198,0.209-1.3841,0.3503
					c-0.3481,0.1351-0.6088,0.3072-0.8163,0.5247c-0.4114,0.4312-0.5791,1.0164-0.5215,1.5642
					c0.0492,0.4675,0.2595,0.9147,0.6206,1.2458c0.2437,0.2234,0.5484,0.3934,0.908,0.4656
					c0.3727,0.075,0.7695,0.0486,1.3494-0.0684c0.3089-0.0623,0.5982-0.1596,0.874-0.3224
					c0.2723-0.1608,0.5062-0.3752,0.6884-0.6367c0.1829-0.2623,0.3015-0.5536,0.3666-0.8633
					c0.0671-0.3192,0.0835-0.6083,0.0835-0.9269l0.0001-8.1189c0-0.4351,0.1232-0.5497,0.4739-0.6345
					c0,0,6.2169-1.2538,6.5065-1.3102c0.405-0.0778,0.5952,0.0378,0.5952,0.4619l-0.0001,5.5422
					c0,0.2198-0.0024,0.4414-0.1515,0.6236c-0.148,0.1808-0.3315,0.2357-0.5457,0.2788c-0.1628,0.0328-0.3256,0.0656-0.4883,0.0984
					c-0.6179,0.1246-1.0199,0.209-1.3841,0.3503c-0.3481,0.1351-0.6088,0.3072-0.8164,0.5247
					c-0.4114,0.4312-0.5938,1.0164-0.5362,1.5642c0.0492,0.4675,0.2744,0.9147,0.6354,1.2458
					c0.2437,0.2234,0.5484,0.3887,0.908,0.461c0.3727,0.075,0.7695,0.0485,1.3494-0.0684c0.309-0.0623,0.5982-0.155,0.874-0.3178
					c0.2723-0.1608,0.5061-0.3751,0.6885-0.6367c0.1829-0.2623,0.3015-0.5536,0.3665-0.8633
					c0.067-0.3192,0.0699-0.6083,0.0699-0.9269V4.5041C18.4191,4.0733,18.1921,3.8079,17.7878,3.8428z"/>
			</g>
		</g>
	</g>
</g>
</svg>
